<svg width="417" height="411" viewBox="0 0 417 411" fill="none" xmlns="http://www.w3.org/2000/svg">
<path d="M200 0H217L228 4L239 12L406 179L413 189L417 201V216L413 227L407 236L369 274L364 271L263 170L251 161L235 153L224 150L218 149H199L185 152L169 159L158 167L146 178L51 273L47 274L11 238L4 228L0 217V200L4 189L8 183L17 173L180 10L189 4L200 0ZM204 64L195 67L187 73L183 78L180 86V100L184 108L189 114L197 119L205 121H212L222 118L230 112L234 107L237 100V86L233 77L227 70L218 65L213 64H204Z" fill="#2450C8"/>
<path d="M142 209L144 210V227L147 242L151 252L160 265L170 274L180 280L191 284L201 286H216L232 282L246 275L258 264L267 250L272 235L273 228V210L277 211L353 287L352 291L248 395L236 404L224 409L214 411H203L187 407L175 400L162 388L64 290L65 286L142 209ZM204 317L197 320L192 324L188 331V343L192 351L198 356L203 358H214L220 355L225 351L229 343V332L225 324L219 319L213 317H204Z" fill="#CF1310"/>
<path d="M201 176H216L229 180L239 187L247 196L252 206L254 213V231L250 243L242 254L235 260L223 266L214 268H203L191 265L180 259L172 251L166 241L163 232L162 226V218L165 205L171 194L181 184L193 178L201 176Z" fill="#D4DE16"/>
</svg>
